<?xml version="1.0" encoding="UTF-8" standalone="no"?>
<!-- Created with Inkscape (http://www.inkscape.org/) -->

<svg
   xmlns:dc="http://purl.org/dc/elements/1.1/"
   xmlns:cc="http://creativecommons.org/ns#"
   xmlns:rdf="http://www.w3.org/1999/02/22-rdf-syntax-ns#"
   xmlns:svg="http://www.w3.org/2000/svg"
   xmlns="http://www.w3.org/2000/svg"
   xmlns:sodipodi="http://sodipodi.sourceforge.net/DTD/sodipodi-0.dtd"
   xmlns:inkscape="http://www.inkscape.org/namespaces/inkscape"
   id="svg2"
   version="1.1"
   inkscape:version="0.48.4 r9939"
   width="280"
   height="64.949997"
   xml:space="preserve"
   sodipodi:docname="scalarm-icon.pdf"><metadata
     id="metadata8"><rdf:RDF><cc:Work
         rdf:about=""><dc:format>image/svg+xml</dc:format><dc:type
           rdf:resource="http://purl.org/dc/dcmitype/StillImage" /><dc:title></dc:title></cc:Work></rdf:RDF></metadata><defs
     id="defs6"><clipPath
       clipPathUnits="userSpaceOnUse"
       id="clipPath18"><path
         d="m 0,0 1380,0 0,935 L 0,935 0,0 z"
         id="path20"
         inkscape:connector-curvature="0" /></clipPath><clipPath
       clipPathUnits="userSpaceOnUse"
       id="clipPath34"><path
         d="m 0,935.434 1380.473,0 L 1380.473,0 0,0 0,935.434 z"
         id="path36"
         inkscape:connector-curvature="0" /></clipPath><clipPath
       clipPathUnits="userSpaceOnUse"
       id="clipPath40"><path
         d="m 0,0 1380,0 0,935 L 0,935 0,0 z"
         id="path42"
         inkscape:connector-curvature="0" /></clipPath><clipPath
       clipPathUnits="userSpaceOnUse"
       id="clipPath138"><path
         d="m 0,0 1380,0 0,935 L 0,935 0,0 z"
         id="path140"
         inkscape:connector-curvature="0" /></clipPath></defs><sodipodi:namedview
     pagecolor="#ffffff"
     bordercolor="#666666"
     borderopacity="1"
     objecttolerance="10"
     gridtolerance="10"
     guidetolerance="10"
     inkscape:pageopacity="0"
     inkscape:pageshadow="2"
     inkscape:window-width="1280"
     inkscape:window-height="969"
     id="namedview4"
     showgrid="false"
     inkscape:zoom="0.90836305"
     inkscape:cx="-283.56925"
     inkscape:cy="274.26457"
     inkscape:window-x="-2"
     inkscape:window-y="-3"
     inkscape:window-maximized="1"
     inkscape:current-layer="g10" /><g
     id="g10"
     inkscape:groupmode="layer"
     inkscape:label="scalarm-icon"
     transform="matrix(1.25,0,0,-1.25,-1098.3938,450.62789)"><g
       id="g12" /><g
       id="g3292"
       transform="translate(4.8,0)"><path
         d="m 948.0088,341.8262 c 0,0 -1.565,2.176 -3.831,2.176 -1.318,0.033 -2.184,-0.594 -2.226,-1.68 0,-1.121 1.319,-1.484 2.349,-1.781 2.967,-0.856 9.311,-2.406 9.311,-7.68 0,-5.207 -4.903,-7.383 -9.393,-7.383 -6.592,0 -9.888,4.682 -9.888,4.682 l 5.274,2.504 c 0.988,-1.055 2.925,-1.912 4.531,-1.912 1.277,0 2.225,0.726 2.225,1.615 0,1.254 -1.813,1.682 -3.337,2.109 -2.513,0.694 -7.869,2.209 -7.869,7.877 0,3.661 4.12,6.825 9.064,6.825 7.168,0 9.393,-5.274 9.393,-5.274 l -5.603,-2.078 z"
         style="fill:#6c99d7;fill-opacity:1;fill-rule:nonzero;stroke:none"
         id="path56"
         inkscape:connector-curvature="0" /><path
         d="m 975.8613,328.9727 c -2.143,-2.176 -5.109,-3.494 -8.404,-3.494 -6.56,0 -11.866,5.307 -11.866,11.865 0,6.527 5.306,11.865 11.866,11.865 3.295,0 6.261,-1.349 8.404,-3.492 l -4.713,-4.681 c -0.924,1.054 -2.274,1.714 -3.691,1.714 -2.703,0 -5.11,-2.373 -5.11,-5.406 0,-3.228 2.407,-5.404 5.11,-5.404 1.449,0 2.8,0.594 3.757,1.681 l 4.647,-4.648 z"
         style="fill:#6c99d7;fill-opacity:1;fill-rule:nonzero;stroke:none"
         id="path58"
         inkscape:connector-curvature="0" /><path
         d="m 985.4873,330.6211 2.308,-4.416 2.273,4.416 -4.581,0 z m -1.978,-4.846 -7.58,0 11.931,23.633 11.931,-23.633 -7.745,0 -4.251,10.186 -4.286,-10.186 z"
         style="fill:#6c99d7;fill-opacity:1;fill-rule:nonzero;stroke:none"
         id="path60"
         inkscape:connector-curvature="0" /><path
         d="m 1018.613,331.3457 0,-5.57 -10.086,0 -6.69,0 -0.034,0 0,23.072 6.724,0 0,-17.502 10.086,0 z"
         style="fill:#6c99d7;fill-opacity:1;fill-rule:nonzero;stroke:none"
         id="path62"
         inkscape:connector-curvature="0" /><path
         d="m 1028.37,330.6211 2.308,-4.416 2.273,4.416 -4.581,0 z m -1.978,-4.846 -7.58,0 11.931,23.633 11.931,-23.633 -7.745,0 -4.251,10.186 -4.286,-10.186 z"
         style="fill:#6c99d7;fill-opacity:1;fill-rule:nonzero;stroke:none"
         id="path64"
         inkscape:connector-curvature="0" /><path
         d="m 1051.41,339.75 3.23,0 c 0,0 1.483,0 1.483,1.813 0,1.714 -1.483,1.714 -1.483,1.714 l -3.23,0 0,-3.527 z m 5.438,-13.975 -4.251,8.405 -1.187,0 0,-8.405 -6.724,0 0,23.073 6.658,0 4.746,0 c 0,0 6.79,0 6.79,-7.35 0,-3.758 -1.781,-5.603 -3.527,-6.494 l 4.68,-9.229 -7.185,0 z"
         style="fill:#6c99d7;fill-opacity:1;fill-rule:nonzero;stroke:none"
         id="path66"
         inkscape:connector-curvature="0" /><path
         d="m 1067.2,325.7754 0,23.467 11.898,-13.875 11.898,13.875 0,-23.467 -6.328,0 0,7.646 -5.57,-5.57 -5.603,5.57 0.033,-7.646 -6.328,0 z"
         style="fill:#6c99d7;fill-opacity:1;fill-rule:nonzero;stroke:none"
         id="path68"
         inkscape:connector-curvature="0" /><path
         d="m 923.9043,343.2578 -13.921,-13.921 4.4,13.513 -1.253,0.408 -1.387,0 -4.747,-14.579 -4.991,14.579 -1.394,0 -1.247,-0.428 4.574,-13.36 -13.788,13.788 -3.728,0 20.605,-20.606 20.606,20.606 -3.729,0 z"
         style="fill:#9fc2e9;fill-opacity:1;fill-rule:nonzero;stroke:none"
         id="path70"
         inkscape:connector-curvature="0" /><path
         d="m 928.3291,340.7666 -21.302,-21.302 -21.302,21.302 -4.483,0 25.785,-25.786 25.786,25.786 -4.484,0 z"
         style="fill:#6c99d7;fill-opacity:1;fill-rule:nonzero;stroke:none"
         id="path72"
         inkscape:connector-curvature="0" /><path
         d="m 892.6934,346.5537 c 0,2.509 -2.033,4.541 -4.542,4.541 -2.508,0 -4.541,-2.032 -4.541,-4.541 0,-2.508 2.033,-4.542 4.541,-4.542 2.509,0 4.542,2.034 4.542,4.542"
         style="fill:#6c99d7;fill-opacity:1;fill-rule:nonzero;stroke:none"
         id="path74"
         inkscape:connector-curvature="0" /><path
         d="m 905.1523,346.5537 c 0,2.509 -2.033,4.541 -4.541,4.541 -2.508,0 -4.541,-2.032 -4.541,-4.541 0,-2.508 2.033,-4.542 4.541,-4.542 2.508,0 4.541,2.034 4.541,4.542"
         style="fill:#6c99d7;fill-opacity:1;fill-rule:nonzero;stroke:none"
         id="path76"
         inkscape:connector-curvature="0" /><path
         d="m 917.6133,346.5537 c 0,2.509 -2.033,4.541 -4.542,4.541 -2.508,0 -4.541,-2.032 -4.541,-4.541 0,-2.508 2.033,-4.542 4.541,-4.542 2.509,0 4.542,2.034 4.542,4.542"
         style="fill:#6c99d7;fill-opacity:1;fill-rule:nonzero;stroke:none"
         id="path78"
         inkscape:connector-curvature="0" /><path
         d="m 930.0723,346.5537 c 0,2.509 -2.034,4.541 -4.542,4.541 -2.509,0 -4.541,-2.032 -4.541,-4.541 0,-2.508 2.032,-4.542 4.541,-4.542 2.508,0 4.542,2.034 4.542,4.542"
         style="fill:#6c99d7;fill-opacity:1;fill-rule:nonzero;stroke:none"
         id="path80"
         inkscape:connector-curvature="0" /></g></g></svg>